<?xml version="1.0" encoding="UTF-8"?>
<svg version="1.1" xmlns="http://www.w3.org/2000/svg" width="945" height="945">
<path d="M0 0 C311.85 0 623.7 0 945 0 C945 311.85 945 623.7 945 945 C633.15 945 321.3 945 0 945 C0 633.15 0 321.3 0 0 Z " fill="#FFFFFF" transform="translate(0,0)"/>
<path d="M0 0 C7.6759762 4.39160389 13.83795448 11.24835517 20.125 17.375 C49.05616535 45.2914781 83.9389617 63.48684223 124.125 68.375 C124.8991626 68.4692627 125.6733252 68.56352539 126.47094727 68.66064453 C164.3569553 72.68120049 203.53070413 68.85749584 238.125 52.375 C238.85412598 52.03098145 239.58325195 51.68696289 240.33447266 51.33251953 C259.3449988 42.22021147 276.14386517 28.68839979 290.8125 13.625 C298.56155042 5.71570334 306.79507466 -1.82401494 318.3125 -2.0625 C329.35975659 -1.8263944 335.57738973 3.39123982 343.3515625 10.7734375 C345.96617337 13.22601615 348.64787109 15.50029926 351.4375 17.75 C355.68627097 21.18286189 359.86045847 24.68720997 364 28.25 C368.52534287 32.14471683 373.06187148 36.0245993 377.625 39.875 C382.18813006 43.72540199 386.72452169 47.60543929 391.25 51.5 C395.3112481 54.99319482 399.40018779 58.43948551 403.5625 61.8125 C408.66807465 65.95560991 413.62300053 70.2573045 418.57788086 74.57788086 C422.21237851 77.73965838 425.88020843 80.84350206 429.625 83.875 C434.65848541 87.95257127 439.54833309 92.18005915 444.43310547 96.43310547 C448.51444763 99.98475252 452.61609114 103.50967488 456.75 107 C457.2761792 107.4444043 457.8023584 107.88880859 458.34448242 108.34667969 C460.49098882 110.15780476 462.63920641 111.96687069 464.78955078 113.7734375 C468.07042555 116.52986724 471.34373367 119.29464564 474.60253906 122.07714844 C476.07198088 123.32980282 477.54760038 124.57519924 479.0234375 125.8203125 C484.92608077 130.92670477 489.55782146 135.46452305 491.125 143.375 C496.29216948 228.69842873 483.8823465 321.48826042 411.125 549.375 C410.81411438 549.9847467 410.50322876 550.59449341 410.18292236 551.22271729 C391.51054824 587.74359666 369.59388815 622.45618915 345.125 655.375 C344.12482472 656.73424604 343.12482567 658.09362178 342.125 659.453125 C335.52637749 668.38029472 328.63208983 677.03807409 321.57666016 685.60742188 C320.29775934 687.16464386 319.02893751 688.73013181 317.76171875 690.296875 C308.65322893 701.55343645 299.1203106 712.43726918 289.24194336 723.02246094 C286.86422708 725.57333815 284.51116098 728.14549529 282.16363525 730.72421265 C274.98651405 738.5792656 267.52148377 746.13167567 259.98730469 753.64306641 C257.86015216 755.76481009 255.73846439 757.89191491 253.6171875 760.01953125 C252.23990417 761.3961544 250.86231101 762.77246766 249.484375 764.1484375 C248.863349 764.77148773 248.242323 765.39453796 247.60247803 766.03646851 C243.83057352 769.78860068 239.94199659 773.35421287 235.91114807 776.82696533 C233.31919614 779.07338124 230.82233915 781.41216381 228.3125 783.75 C223.66114451 788.04695948 218.87425159 792.11690142 213.9375 796.0859375 C211.50124973 798.06877452 209.11750345 800.0997918 206.74389648 802.15673828 C168.08747471 835.51950418 168.08747471 835.51950418 153.9375 835.8125 C152.89207031 835.85246094 151.84664063 835.89242187 150.76953125 835.93359375 C141.46234806 834.50709086 134.09521695 828.42495305 126.875 822.75 C125.95895996 822.03996826 125.04291992 821.32993652 124.09912109 820.59838867 C122.27047103 819.17894364 120.44470065 817.75577967 118.62207031 816.32861328 C116.48264734 814.65480974 114.33460319 812.99360311 112.1796875 811.33984375 C104.09669166 805.10849889 96.368152 798.50596863 88.70654297 791.765625 C86.74873421 790.04415561 84.78009658 788.33526503 82.8125 786.625 C78.20963587 782.58635793 73.66566291 778.48327534 69.125 774.375 C67.85571655 773.23599243 67.85571655 773.23599243 66.56079102 772.07397461 C58.44273379 764.72576428 50.66258159 757.06626616 42.93237305 749.31274414 C40.80175366 747.17672643 38.66578777 745.04615882 36.52929688 742.91601562 C35.1481165 741.53417493 33.76724611 740.15202433 32.38671875 738.76953125 C31.76053146 738.14536819 31.13434418 737.52120514 30.48918152 736.87812805 C26.74202095 733.11132733 23.17992974 729.23045021 19.71452332 725.20263672 C17.14239946 722.24520416 14.43900189 719.41321233 11.75 716.5625 C7.10310224 711.59661297 2.68204552 706.52249092 -1.5703125 701.2109375 C-4.25042315 697.91303863 -7.02790885 694.70954531 -9.8125 691.5 C-15.00278068 685.49041693 -19.88931389 679.29951209 -24.67041016 672.96191406 C-26.65179195 670.35166241 -28.67491125 667.77372516 -30.6875 665.1875 C-57.67609734 630.10654373 -81.09240916 592.4172488 -101.875 553.375 C-102.4417041 552.31168457 -103.0084082 551.24836914 -103.59228516 550.15283203 C-143.30772527 474.92794768 -162.96792385 390.61632644 -183.875 174.375 C-183.90721441 172.99396224 -183.94011459 171.61294033 -183.97363281 170.23193359 C-184.05745086 166.69041229 -184.11666998 163.14918496 -184.15908813 159.60693359 C-184.18647599 157.63618441 -184.23192604 155.6657116 -184.27807617 153.6953125 C-184.33168829 145.07125628 -183.27926162 138.05301652 -178.12109375 130.96484375 C-177.52425781 130.41957031 -176.92742187 129.87429687 -176.3125 129.3125 C-175.61125 128.66539062 -174.91 128.01828125 -174.1875 127.3515625 C-170.8348924 124.48598912 -167.43489092 121.68731185 -163.99609375 118.92578125 C-160.37778825 115.99857327 -156.88019302 112.93591632 -153.375 109.875 C-149.09314068 106.14062726 -144.79166959 102.45039919 -140.375 98.875 C-135.34151459 94.79742873 -130.45166691 90.56994085 -125.56689453 86.31689453 C-119.91235121 81.3962235 -114.20027914 76.54718901 -108.46777344 71.71777344 C-105.76685198 69.44078569 -103.07119693 67.1575781 -100.375 64.875 C-97.13801005 62.13518685 -93.90046464 59.39604448 -90.66015625 56.66015625 C-89.58586274 55.75269267 -88.51164413 54.8451404 -87.4375 53.9375 C-86.90527832 53.48777832 -86.37305664 53.03805664 -85.82470703 52.57470703 C-82.38318184 49.66248821 -78.95846344 46.73143692 -75.54101562 43.79101562 C-70.88318074 39.78334744 -66.21196364 35.80658387 -61.4375 31.9375 C-57.049725 28.37444629 -52.76402913 24.70900278 -48.5 21 C-47.86433105 20.44900635 -47.22866211 19.8980127 -46.57373047 19.33032227 C-43.49470475 16.66013796 -40.42665326 13.97927594 -37.37890625 11.2734375 C-26.4263068 1.63049202 -15.07461332 -6.31030325 0 0 Z " fill="#FFFFFF" transform="translate(318.875,55.625)"/>
<path d="M0 0 C7.6759762 4.39160389 13.83795448 11.24835517 20.125 17.375 C49.05616535 45.2914781 83.9389617 63.48684223 124.125 68.375 C124.8991626 68.4692627 125.6733252 68.56352539 126.47094727 68.66064453 C164.3569553 72.68120049 203.53070413 68.85749584 238.125 52.375 C238.85412598 52.03098145 239.58325195 51.68696289 240.33447266 51.33251953 C259.3449988 42.22021147 276.14386517 28.68839979 290.8125 13.625 C298.56155042 5.71570334 306.79507466 -1.82401494 318.3125 -2.0625 C329.35975659 -1.8263944 335.57738973 3.39123982 343.3515625 10.7734375 C345.96617337 13.22601615 348.64787109 15.50029926 351.4375 17.75 C355.68627097 21.18286189 359.86045847 24.68720997 364 28.25 C368.52534287 32.14471683 373.06187148 36.0245993 377.625 39.875 C382.18813006 43.72540199 386.72452169 47.60543929 391.25 51.5 C395.3112481 54.99319482 399.40018779 58.43948551 403.5625 61.8125 C408.66807465 65.95560991 413.62300053 70.2573045 418.57788086 74.57788086 C422.21237851 77.73965838 425.88020843 80.84350206 429.625 83.875 C434.65848541 87.95257127 439.54833309 92.18005915 444.43310547 96.43310547 C448.51444763 99.98475252 452.61609114 103.50967488 456.75 107 C457.2761792 107.4444043 457.8023584 107.88880859 458.34448242 108.34667969 C460.49098882 110.15780476 462.63920641 111.96687069 464.78955078 113.7734375 C468.07042555 116.52986724 471.34373367 119.29464564 474.60253906 122.07714844 C476.07198088 123.32980282 477.54760038 124.57519924 479.0234375 125.8203125 C484.92608077 130.92670477 489.55782146 135.46452305 491.125 143.375 C496.29216948 228.69842873 483.8823465 321.48826042 411.125 549.375 C410.81411438 549.9847467 410.50322876 550.59449341 410.18292236 551.22271729 C391.51054824 587.74359666 369.59388815 622.45618915 345.125 655.375 C344.12482472 656.73424604 343.12482567 658.09362178 342.125 659.453125 C335.52637749 668.38029472 328.63208983 677.03807409 321.57666016 685.60742188 C320.29775934 687.16464386 319.02893751 688.73013181 317.76171875 690.296875 C308.65322893 701.55343645 299.1203106 712.43726918 289.24194336 723.02246094 C286.86422708 725.57333815 284.51116098 728.14549529 282.16363525 730.72421265 C274.98651405 738.5792656 267.52148377 746.13167567 259.98730469 753.64306641 C257.86015216 755.76481009 255.73846439 757.89191491 253.6171875 760.01953125 C252.23990417 761.3961544 250.86231101 762.77246766 249.484375 764.1484375 C248.863349 764.77148773 248.242323 765.39453796 247.60247803 766.03646851 C243.83057352 769.78860068 239.94199659 773.35421287 235.91114807 776.82696533 C233.31919614 779.07338124 230.82233915 781.41216381 228.3125 783.75 C223.66114451 788.04695948 218.87425159 792.11690142 213.9375 796.0859375 C211.50124973 798.06877452 209.11750345 800.0997918 206.74389648 802.15673828 C168.08747471 835.51950418 168.08747471 835.51950418 153.9375 835.8125 C152.89207031 835.85246094 151.84664063 835.89242187 150.76953125 835.93359375 C141.46234806 834.50709086 134.09521695 828.42495305 126.875 822.75 C125.95895996 822.03996826 125.04291992 821.32993652 124.09912109 820.59838867 C122.27047103 819.17894364 120.44470065 817.75577967 118.62207031 816.32861328 C116.48264734 814.65480974 114.33460319 812.99360311 112.1796875 811.33984375 C104.09669166 805.10849889 96.368152 798.50596863 88.70654297 791.765625 C86.74873421 790.04415561 84.78009658 788.33526503 82.8125 786.625 C78.20963587 782.58635793 73.66566291 778.48327534 69.125 774.375 C67.85571655 773.23599243 67.85571655 773.23599243 66.56079102 772.07397461 C58.44273379 764.72576428 50.66258159 757.06626616 42.93237305 749.31274414 C40.80175366 747.17672643 38.66578777 745.04615882 36.52929688 742.91601562 C35.1481165 741.53417493 33.76724611 740.15202433 32.38671875 738.76953125 C31.76053146 738.14536819 31.13434418 737.52120514 30.48918152 736.87812805 C26.74202095 733.11132733 23.17992974 729.23045021 19.71452332 725.20263672 C17.14239946 722.24520416 14.43900189 719.41321233 11.75 716.5625 C7.10310224 711.59661297 2.68204552 706.52249092 -1.5703125 701.2109375 C-4.25042315 697.91303863 -7.02790885 694.70954531 -9.8125 691.5 C-15.00278068 685.49041693 -19.88931389 679.29951209 -24.67041016 672.96191406 C-26.65179195 670.35166241 -28.67491125 667.77372516 -30.6875 665.1875 C-57.67609734 630.10654373 -81.09240916 592.4172488 -101.875 553.375 C-102.4417041 552.31168457 -103.0084082 551.24836914 -103.59228516 550.15283203 C-143.30772527 474.92794768 -162.96792385 390.61632644 -183.875 174.375 C-183.90721441 172.99396224 -183.94011459 171.61294033 -183.97363281 170.23193359 C-184.05745086 166.69041229 -184.11666998 163.14918496 -184.15908813 159.60693359 C-184.18647599 157.63618441 -184.23192604 155.6657116 -184.27807617 153.6953125 C-184.33168829 145.07125628 -183.27926162 138.05301652 -178.12109375 130.96484375 C-177.52425781 130.41957031 -176.92742187 129.87429687 -176.3125 129.3125 C-175.61125 128.66539062 -174.91 128.01828125 -174.1875 127.3515625 C-170.8348924 124.48598912 -167.43489092 121.68731185 -163.99609375 118.92578125 C-160.37778825 115.99857327 -156.88019302 112.93591632 -153.375 109.875 C-149.09314068 106.14062726 -144.79166959 102.45039919 -140.375 98.875 C-135.34151459 94.79742873 -130.45166691 90.56994085 -125.56689453 86.31689453 C-119.91235121 81.3962235 -114.20027914 76.54718901 -108.46777344 71.71777344 C-105.76685198 69.44078569 -103.07119693 67.1575781 -100.375 64.875 C-97.13801005 62.13518685 -93.90046464 59.39604448 -90.66015625 56.66015625 C-89.58586274 55.75269267 -88.51164413 54.8451404 -87.4375 53.9375 C-86.90527832 53.48777832 -86.37305664 53.03805664 -85.82470703 52.57470703 C-82.38318184 49.66248821 -78.95846344 46.73143692 -75.54101562 43.79101562 C-70.88318074 39.78334744 -66.21196364 35.80658387 -61.4375 31.9375 C-57.049725 28.37444629 -52.76402913 24.70900278 -48.5 21 C-47.86433105 20.44900635 -47.22866211 19.8980127 -46.57373047 19.33032227 C-43.49470475 16.66013796 -40.42665326 13.97927594 -37.37890625 11.2734375 C-26.4263068 1.63049202 -15.07461332 -6.31030325 0 0 Z M-11.875 21.375 C-12.66261719 22.04144531 -13.45023438 22.70789063 -14.26171875 23.39453125 C-28.17578125 35.16796875 -28.17578125 35.16796875 -29.77832031 36.52392578 C-30.85193731 37.43239619 -31.92550418 38.34092582 -32.99902344 39.24951172 C-35.69480756 41.53099468 -38.39141922 43.81148409 -41.08984375 46.08984375 C-42.16413726 46.99730733 -43.23835587 47.9048596 -44.3125 48.8125 C-44.84472168 49.26222168 -45.37694336 49.71194336 -45.92529297 50.17529297 C-49.36681816 53.08751179 -52.79153656 56.01856308 -56.20898438 58.95898438 C-60.86681926 62.96665256 -65.53803636 66.94341613 -70.3125 70.8125 C-75.41807465 74.95560991 -80.37300053 79.2573045 -85.32788086 83.57788086 C-88.96237851 86.73965838 -92.63020843 89.84350206 -96.375 92.875 C-101.40848541 96.95257127 -106.29833309 101.18005915 -111.18310547 105.43310547 C-116.83919371 110.35512092 -122.55268348 115.20572133 -128.28662109 120.03662109 C-130.96408962 122.29267435 -133.63868234 124.5521218 -136.3125 126.8125 C-136.83908203 127.25730713 -137.36566406 127.70211426 -137.90820312 128.16040039 C-140.84979033 130.64871575 -143.77991666 133.14962712 -146.69921875 135.6640625 C-147.33351807 136.21006104 -147.96781738 136.75605957 -148.62133789 137.31860352 C-149.84709073 138.37486954 -151.07159748 139.43258382 -152.29467773 140.49194336 C-154.75481641 142.61211222 -157.16873073 144.57082049 -159.875 146.375 C-160.17124434 148.93435682 -160.27037442 151.24737473 -160.23828125 153.80859375 C-160.23955017 154.57743896 -160.24081909 155.34628418 -160.24212646 156.13842773 C-160.24040918 158.69680072 -160.21492266 161.25428182 -160.1875 163.8125 C-160.17812844 165.59578359 -160.16893522 167.37906813 -160.15991211 169.16235352 C-160.02915794 186.28944044 -159.29593278 203.39338005 -158.41015625 220.49609375 C-158.3715448 221.26332764 -158.33293335 222.03056152 -158.29315186 222.82104492 C-158.007935 228.05189038 -157.45565099 233.1491411 -156.875 238.375 C-86.585 238.375 -16.295 238.375 56.125 238.375 C56.04644775 253.17029541 55.96789551 267.96559082 55.88696289 283.20922852 C55.72598874 314.86313343 55.58459652 346.51696047 55.48985291 378.17112732 C55.48778205 378.8612376 55.48571119 379.55134787 55.48357758 380.26237058 C55.43867986 395.26174322 55.39712772 410.26112338 55.35902006 425.26051477 C55.34031065 432.61663065 55.32086226 439.9727445 55.30102539 447.32885742 C55.299064 448.0608638 55.29710262 448.79287017 55.2950818 449.54705856 C55.23120596 473.25688798 55.11857057 496.96617979 54.98054169 520.67568376 C54.83891059 545.04832023 54.74668577 569.42065941 54.71627515 593.79370044 C54.71195308 597.23929305 54.70706853 600.68488465 54.70184135 604.130476 C54.70083001 604.80859154 54.69981866 605.48670708 54.69877667 606.18537158 C54.68107749 617.08420505 54.61158145 627.98211701 54.52251949 638.88057525 C54.43400802 649.84780328 54.40174072 660.81425587 54.42247934 671.78184683 C54.43207916 677.72081998 54.4174695 683.65709799 54.33691788 689.59559059 C54.26361088 695.03989572 54.26041365 700.47970948 54.31151658 705.92422675 C54.31782597 707.88688654 54.29903728 709.84983298 54.25175226 711.81193323 C54.02950128 721.60892111 54.4593317 728.54682067 61.40036815 735.92734727 C64.51166321 738.91674013 67.76393764 741.67309695 71.125 744.375 C72.60870282 745.68236997 74.08964469 746.99292146 75.5625 748.3125 C76.15933594 748.81652344 76.75617188 749.32054687 77.37109375 749.83984375 C79.38333482 751.60111488 81.24871986 753.46979839 83.125 755.375 C86.96054553 759.2549727 90.97744079 762.83357014 95.125 766.375 C96.17864385 767.28094952 97.23200677 768.18722583 98.28515625 769.09375 C101.29737899 771.68457591 104.31722095 774.26636705 107.33886719 776.84619141 C109.00382164 778.27127954 110.66276082 779.70303478 112.3203125 781.13671875 C125.3218748 792.33069708 139.08970232 802.5213758 153.125 812.375 C158.48210912 809.47003966 163.25453527 806.17328579 168.0625 802.4375 C168.79831299 801.86974854 169.53412598 801.30199707 170.29223633 800.71704102 C185.91487512 788.60836968 201.10630975 775.98101214 215.66796875 762.61328125 C217.85405069 760.62182664 220.07082606 758.67827487 222.3125 756.75 C225.74964584 753.76787347 228.93360747 750.58500804 232.125 747.34375 C234.06391002 745.43513545 236.06199551 743.64789448 238.125 741.875 C238.73983387 741.32374498 239.35466775 740.77248996 239.98813295 740.20453024 C242.125 738.375 242.125 738.375 244.23180342 736.97368097 C247.3042224 734.62863928 249.63521841 732.3756873 250.58161414 728.50979698 C251.35523966 722.61522743 251.1622669 716.66599076 251.08703613 710.73474121 C251.09052558 708.69842627 251.09753178 706.66211484 251.10774946 704.62582254 C251.12563716 699.03386236 251.09364104 693.44312806 251.05352497 687.85132408 C251.01898545 681.82005238 251.03066766 675.7888501 251.03674316 669.75750732 C251.04093852 659.30911268 251.01611252 648.86104697 250.97084045 638.4127655 C250.92348682 627.4559693 250.89270946 616.49933248 250.88401794 605.54243469 C250.88346803 604.86090199 250.88291811 604.1793693 250.88235153 603.47718409 C250.87964482 600.01595381 250.87723377 596.55472338 250.87493652 593.09349281 C250.85813796 568.58435552 250.80425253 544.07542633 250.72851562 519.56640625 C250.65502816 495.75782375 250.59836521 471.94929821 250.56445312 448.140625 C250.56340092 447.4066017 250.56234871 446.6725784 250.56126461 445.91631197 C250.55071636 438.54487659 250.54050986 431.17344076 250.53055374 423.80200456 C250.51026461 408.78584668 250.4876946 393.76969251 250.46374512 378.75354004 C250.4626468 378.06313781 250.46154848 377.37273558 250.46041688 376.66141207 C250.38682474 330.56583489 250.25493646 284.47046057 250.125 238.375 C320.745 238.375 391.365 238.375 464.125 238.375 C465.92864644 215.58908138 465.92864644 215.58908138 466.921875 192.76171875 C467.01541153 188.70713815 467.15393469 184.66127098 467.37304688 180.61181641 C467.60845417 176.2597808 467.7745388 171.90901356 467.90447998 167.5526123 C467.96743003 165.82918865 468.05320674 164.10642543 468.16339111 162.38537598 C468.96492056 153.1032375 468.96492056 153.1032375 465.91864014 144.60473633 C462.454854 140.87005766 458.35895094 138.16401135 454.125 135.375 C452.78765012 134.27387084 451.46696401 133.15145853 450.1796875 131.9921875 C449.64674072 131.53271729 449.11379395 131.07324707 448.56469727 130.59985352 C448.04834717 130.15440186 447.53199707 129.7089502 447 129.25 C442.93915983 125.75633829 438.84979516 122.31050067 434.6875 118.9375 C429.58192535 114.79439009 424.62699947 110.4926955 419.67211914 106.17211914 C416.03762149 103.01034162 412.36979157 99.90649794 408.625 96.875 C403.59151459 92.79742873 398.70166691 88.56994085 393.81689453 84.31689453 C388.16080629 79.39487908 382.44731652 74.54427867 376.71337891 69.71337891 C374.03591047 67.45732573 371.36127043 65.19793394 368.6875 62.9375 C368.15511719 62.48761719 367.62273438 62.03773437 367.07421875 61.57421875 C363.03155238 58.15350105 359.01428039 54.70394463 355 51.25 C350.08449359 47.02212727 345.10214366 42.89221154 340.0625 38.8125 C337.76167114 36.90330158 335.49899964 34.96896856 333.25 33 C332.57767334 32.4114624 331.90534668 31.8229248 331.21264648 31.21655273 C329.88844035 30.05326279 328.56749182 28.88625139 327.25024414 27.71508789 C326.33940063 26.91445923 326.33940063 26.91445923 325.41015625 26.09765625 C324.87269775 25.62078369 324.33523926 25.14391113 323.78149414 24.65258789 C321.99015507 23.27099948 320.17426999 22.3225539 318.125 21.375 C313.23943724 25.56684237 308.47279461 29.87686323 303.75 34.25 C303.18410156 34.77182861 302.61820313 35.29365723 302.03515625 35.83129883 C299.57352541 38.10202624 297.12138603 40.37845102 294.69921875 42.69140625 C264.07930104 71.40749488 222.64662292 88.34922822 181.125 92.375 C180.01253906 92.48585938 178.90007812 92.59671875 177.75390625 92.7109375 C146.03185087 95.32791866 113.49880964 93.27950314 83.125 83.375 C82.43148437 83.15005859 81.73796875 82.92511719 81.0234375 82.69335938 C63.2442415 76.82374676 46.25262418 68.45711444 31.125 57.375 C30.08472656 56.61832031 29.04445313 55.86164063 27.97265625 55.08203125 C19.84018282 49.05190422 12.46853187 42.32862889 5.125 35.375 C2.77710472 33.15988225 0.4215378 30.95323967 -1.9375 28.75 C-2.741875 27.98647217 -2.741875 27.98647217 -3.5625 27.20751953 C-6.17236797 24.76948447 -8.54756353 22.73150887 -11.875 21.375 Z " fill="#009A4B" transform="translate(318.875,55.625)"/>
<path d="M0 0 C70.29 0 140.58 0 213 0 C213 161.7 213 323.4 213 490 C208.40042223 486.05750477 204.25640687 482.32603034 200.25 477.875 C199.20313112 476.72525485 198.15625598 475.57551539 197.109375 474.42578125 C196.58923828 473.85166504 196.06910156 473.27754883 195.53320312 472.68603516 C194.09893281 471.10879458 192.65407675 469.54235742 191.203125 467.98046875 C175.02081954 450.51199739 159.88429981 432.08508767 145.56152344 413.06884766 C144.04092004 411.05421457 142.51001542 409.04783123 140.9765625 407.04296875 C133.81956354 397.64706566 127.08135869 388.00009612 120.48583984 378.203125 C119.17179652 376.25473082 117.84796635 374.31359159 116.51953125 372.375 C68.66522152 302.14141061 36.76537644 224.16894817 0 0 Z " fill="#ED1C24" transform="translate(162,294)"/>
<path d="M0 0 C7.6759762 4.39160389 13.83795448 11.24835517 20.125 17.375 C49.05616535 45.2914781 83.9389617 63.48684223 124.125 68.375 C124.8991626 68.4692627 125.6733252 68.56352539 126.47094727 68.66064453 C164.3569553 72.68120049 203.53070413 68.85749584 238.125 52.375 C238.85412598 52.03098145 239.58325195 51.68696289 240.33447266 51.33251953 C259.3449988 42.22021147 276.14386517 28.68839979 290.8125 13.625 C298.56155042 5.71570334 306.79507466 -1.82401494 318.3125 -2.0625 C329.35975659 -1.8263944 335.57738973 3.39123982 343.3515625 10.7734375 C345.96617337 13.22601615 348.64787109 15.50029926 351.4375 17.75 C355.68627097 21.18286189 359.86045847 24.68720997 364 28.25 C368.52534287 32.14471683 373.06187148 36.0245993 377.625 39.875 C382.18813006 43.72540199 386.72452169 47.60543929 391.25 51.5 C395.3112481 54.99319482 399.40018779 58.43948551 403.5625 61.8125 C408.66807465 65.95560991 413.62300053 70.2573045 418.57788086 74.57788086 C422.21237851 77.73965838 425.88020843 80.84350206 429.625 83.875 C434.65848541 87.95257127 439.54833309 92.18005915 444.43310547 96.43310547 C448.51444763 99.98475252 452.61609114 103.50967488 456.75 107 C457.2761792 107.4444043 457.8023584 107.88880859 458.34448242 108.34667969 C460.49098882 110.15780476 462.63920641 111.96687069 464.78955078 113.7734375 C468.07042555 116.52986724 471.34373367 119.29464564 474.60253906 122.07714844 C476.07198088 123.32980282 477.54760038 124.57519924 479.0234375 125.8203125 C484.92608077 130.92670477 489.55782146 135.46452305 491.125 143.375 C496.29216948 228.69842873 483.8823465 321.48826042 411.125 549.375 C410.81411438 549.9847467 410.50322876 550.59449341 410.18292236 551.22271729 C391.51054824 587.74359666 369.59388815 622.45618915 345.125 655.375 C344.12482472 656.73424604 343.12482567 658.09362178 342.125 659.453125 C335.52637749 668.38029472 328.63208983 677.03807409 321.57666016 685.60742188 C320.29775934 687.16464386 319.02893751 688.73013181 317.76171875 690.296875 C308.65322893 701.55343645 299.1203106 712.43726918 289.24194336 723.02246094 C286.86422708 725.57333815 284.51116098 728.14549529 282.16363525 730.72421265 C274.98651405 738.5792656 267.52148377 746.13167567 259.98730469 753.64306641 C257.86015216 755.76481009 255.73846439 757.89191491 253.6171875 760.01953125 C252.23990417 761.3961544 250.86231101 762.77246766 249.484375 764.1484375 C248.863349 764.77148773 248.242323 765.39453796 247.60247803 766.03646851 C243.83057352 769.78860068 239.94199659 773.35421287 235.91114807 776.82696533 C233.31919614 779.07338124 230.82233915 781.41216381 228.3125 783.75 C223.66114451 788.04695948 218.87425159 792.11690142 213.9375 796.0859375 C211.50124973 798.06877452 209.11750345 800.0997918 206.74389648 802.15673828 C168.08747471 835.51950418 168.08747471 835.51950418 153.9375 835.8125 C152.89207031 835.85246094 151.84664063 835.89242187 150.76953125 835.93359375 C141.46234806 834.50709086 134.09521695 828.42495305 126.875 822.75 C125.95895996 822.03996826 125.04291992 821.32993652 124.09912109 820.59838867 C122.27047103 819.17894364 120.44470065 817.75577967 118.62207031 816.32861328 C116.48264734 814.65480974 114.33460319 812.99360311 112.1796875 811.33984375 C104.09669166 805.10849889 96.368152 798.50596863 88.70654297 791.765625 C86.74873421 790.04415561 84.78009658 788.33526503 82.8125 786.625 C78.20963587 782.58635793 73.66566291 778.48327534 69.125 774.375 C67.85571655 773.23599243 67.85571655 773.23599243 66.56079102 772.07397461 C58.44273379 764.72576428 50.66258159 757.06626616 42.93237305 749.31274414 C40.80175366 747.17672643 38.66578777 745.04615882 36.52929688 742.91601562 C35.1481165 741.53417493 33.76724611 740.15202433 32.38671875 738.76953125 C31.76053146 738.14536819 31.13434418 737.52120514 30.48918152 736.87812805 C26.74202095 733.11132733 23.17992974 729.23045021 19.71452332 725.20263672 C17.14239946 722.24520416 14.43900189 719.41321233 11.75 716.5625 C7.10310224 711.59661297 2.68204552 706.52249092 -1.5703125 701.2109375 C-4.25042315 697.91303863 -7.02790885 694.70954531 -9.8125 691.5 C-15.00278068 685.49041693 -19.88931389 679.29951209 -24.67041016 672.96191406 C-26.65179195 670.35166241 -28.67491125 667.77372516 -30.6875 665.1875 C-57.67609734 630.10654373 -81.09240916 592.4172488 -101.875 553.375 C-102.4417041 552.31168457 -103.0084082 551.24836914 -103.59228516 550.15283203 C-143.30772527 474.92794768 -162.96792385 390.61632644 -183.875 174.375 C-183.90721441 172.99396224 -183.94011459 171.61294033 -183.97363281 170.23193359 C-184.05745086 166.69041229 -184.11666998 163.14918496 -184.15908813 159.60693359 C-184.18647599 157.63618441 -184.23192604 155.6657116 -184.27807617 153.6953125 C-184.33168829 145.07125628 -183.27926162 138.05301652 -178.12109375 130.96484375 C-177.52425781 130.41957031 -176.92742187 129.87429687 -176.3125 129.3125 C-175.61125 128.66539062 -174.91 128.01828125 -174.1875 127.3515625 C-170.8348924 124.48598912 -167.43489092 121.68731185 -163.99609375 118.92578125 C-160.37778825 115.99857327 -156.88019302 112.93591632 -153.375 109.875 C-149.09314068 106.14062726 -144.79166959 102.45039919 -140.375 98.875 C-135.34151459 94.79742873 -130.45166691 90.56994085 -125.56689453 86.31689453 C-119.91235121 81.3962235 -114.20027914 76.54718901 -108.46777344 71.71777344 C-105.76685198 69.44078569 -103.07119693 67.1575781 -100.375 64.875 C-97.13801005 62.13518685 -93.90046464 59.39604448 -90.66015625 56.66015625 C-89.58586274 55.75269267 -88.51164413 54.8451404 -87.4375 53.9375 C-86.90527832 53.48777832 -86.37305664 53.03805664 -85.82470703 52.57470703 C-82.38318184 49.66248821 -78.95846344 46.73143692 -75.54101562 43.79101562 C-70.88318074 39.78334744 -66.21196364 35.80658387 -61.4375 31.9375 C-57.049725 28.37444629 -52.76402913 24.70900278 -48.5 21 C-47.86433105 20.44900635 -47.22866211 19.8980127 -46.57373047 19.33032227 C-43.49470475 16.66013796 -40.42665326 13.97927594 -37.37890625 11.2734375 C-26.4263068 1.63049202 -15.07461332 -6.31030325 0 0 Z M-11.875 21.375 C-12.66261719 22.04144531 -13.45023438 22.70789063 -14.26171875 23.39453125 C-28.17578125 35.16796875 -28.17578125 35.16796875 -29.77832031 36.52392578 C-30.85193731 37.43239619 -31.92550418 38.34092582 -32.99902344 39.24951172 C-35.69480756 41.53099468 -38.39141922 43.81148409 -41.08984375 46.08984375 C-42.16413726 46.99730733 -43.23835587 47.9048596 -44.3125 48.8125 C-44.84472168 49.26222168 -45.37694336 49.71194336 -45.92529297 50.17529297 C-49.36681816 53.08751179 -52.79153656 56.01856308 -56.20898438 58.95898438 C-60.86681926 62.96665256 -65.53803636 66.94341613 -70.3125 70.8125 C-75.41807465 74.95560991 -80.37300053 79.2573045 -85.32788086 83.57788086 C-88.96237851 86.73965838 -92.63020843 89.84350206 -96.375 92.875 C-101.40848541 96.95257127 -106.29833309 101.18005915 -111.18310547 105.43310547 C-116.83919371 110.35512092 -122.55268348 115.20572133 -128.28662109 120.03662109 C-130.96408962 122.29267435 -133.63868234 124.5521218 -136.3125 126.8125 C-136.83908203 127.25730713 -137.36566406 127.70211426 -137.90820312 128.16040039 C-140.84979033 130.64871575 -143.77991666 133.14962712 -146.69921875 135.6640625 C-147.33351807 136.21006104 -147.96781738 136.75605957 -148.62133789 137.31860352 C-149.84709073 138.37486954 -151.07159748 139.43258382 -152.29467773 140.49194336 C-154.75481641 142.61211222 -157.16873073 144.57082049 -159.875 146.375 C-160.17123977 148.9343174 -160.27034475 151.2474112 -160.23828125 153.80859375 C-160.23964081 154.57617004 -160.24100037 155.34374634 -160.24240112 156.13458252 C-160.24090387 158.69425102 -160.21538701 161.25299112 -160.1875 163.8125 C-160.17676571 165.61629188 -160.16610618 167.42008421 -160.15551758 169.22387695 C-159.46822459 252.50979489 -150.11132808 337.08636145 -57.875 583.375 C-57.26865723 584.36951172 -56.66231445 585.36402344 -56.03759766 586.38867188 C-48.52401229 598.67552543 -40.77358399 610.70077416 -32.32226562 622.36279297 C-30.83659143 624.42840139 -29.37606178 626.5097774 -27.921875 628.59765625 C-17.34467373 643.77680706 -6.05273463 658.33079022 5.68945312 672.62353516 C6.96087211 674.17475281 8.2233011 675.73332934 9.484375 677.29296875 C19.4142793 689.56038702 29.86993712 701.28460113 40.71484375 712.74609375 C43.34714883 715.53261036 45.91061558 718.36707707 48.4375 721.25 C52.84828327 726.19108737 57.51321661 730.87262464 62.1875 735.5625 C62.94393799 736.32353027 63.70037598 737.08456055 64.47973633 737.86865234 C68.66002567 742.03756613 72.93483517 746.02370341 77.40795898 749.8762207 C79.40914553 751.62302636 81.28026628 753.46438294 83.125 755.375 C86.96054553 759.2549727 90.97744079 762.83357014 95.125 766.375 C96.17864385 767.28094952 97.23200677 768.18722583 98.28515625 769.09375 C101.29737899 771.68457591 104.31722095 774.26636705 107.33886719 776.84619141 C109.00382164 778.27127954 110.66276082 779.70303478 112.3203125 781.13671875 C125.3218748 792.33069708 139.08970232 802.5213758 153.125 812.375 C158.48210912 809.47003966 163.25453527 806.17328579 168.0625 802.4375 C168.79831299 801.86974854 169.53412598 801.30199707 170.29223633 800.71704102 C185.91487512 788.60836968 201.10630975 775.98101214 215.66796875 762.61328125 C217.85405069 760.62182664 220.07082606 758.67827487 222.3125 756.75 C225.66636776 753.84012695 228.79145227 750.75617443 231.875 747.5625 C233.72333158 745.76551097 235.59945773 744.10444772 237.55859375 742.43359375 C243.11045858 737.60929445 248.26382557 732.38565086 253.45239258 727.17797852 C255.183947 725.441064 256.92078359 723.70956111 258.65820312 721.97851562 C263.83314304 716.80668075 268.93607822 711.6295747 273.6862793 706.05883789 C275.88241672 703.48854096 278.19576131 701.03626976 280.5 698.5625 C284.7905487 693.91808403 288.85372414 689.13741201 292.8203125 684.2109375 C294.8831065 681.672652 296.98356217 679.17645218 299.10864258 676.69067383 C310.4489465 663.42019009 320.88026306 649.50272775 331.125 635.375 C331.63675781 634.67004395 332.14851563 633.96508789 332.67578125 633.23876953 C353.74464909 604.1023042 372.60682163 573.30278638 389.125 541.375 C389.69766602 540.26817871 390.27033203 539.16135742 390.86035156 538.02099609 C397.88325018 524.37104928 404.51736634 510.6671832 410.125 496.375 C410.73891602 494.82449951 410.73891602 494.82449951 411.36523438 493.24267578 C435.39980948 432.25274851 450.05870104 368.32026095 458.375 303.375 C458.55366104 301.98544098 458.55366104 301.98544098 458.7359314 300.56781006 C463.12235001 266.1066562 465.35080694 231.66563579 466.66915894 196.96833801 C466.93720755 189.91516766 467.2460423 182.86704545 467.6254425 175.81893921 C467.80653173 172.21230467 467.9326959 168.60566031 468.03823853 164.99609375 C468.09511084 163.40086823 468.17423076 161.80624636 468.27792358 160.21337891 C468.91316768 152.07161585 468.91316768 152.07161585 465.91217041 144.72766113 C462.84198794 141.51258691 459.3597911 138.94916615 455.6920166 136.45803833 C453.72908539 135.10136493 451.95655698 133.58245081 450.1796875 131.9921875 C449.64674072 131.53271729 449.11379395 131.07324707 448.56469727 130.59985352 C448.04834717 130.15440186 447.53199707 129.7089502 447 129.25 C442.93915983 125.75633829 438.84979516 122.31050067 434.6875 118.9375 C429.58192535 114.79439009 424.62699947 110.4926955 419.67211914 106.17211914 C416.03762149 103.01034162 412.36979157 99.90649794 408.625 96.875 C403.59151459 92.79742873 398.70166691 88.56994085 393.81689453 84.31689453 C388.16080629 79.39487908 382.44731652 74.54427867 376.71337891 69.71337891 C374.03591047 67.45732573 371.36127043 65.19793394 368.6875 62.9375 C368.15511719 62.48761719 367.62273438 62.03773437 367.07421875 61.57421875 C363.03155238 58.15350105 359.01428039 54.70394463 355 51.25 C350.08449359 47.02212727 345.10214366 42.89221154 340.0625 38.8125 C337.76167114 36.90330158 335.49899964 34.96896856 333.25 33 C332.57767334 32.4114624 331.90534668 31.8229248 331.21264648 31.21655273 C329.88844035 30.05326279 328.56749182 28.88625139 327.25024414 27.71508789 C326.33940063 26.91445923 326.33940063 26.91445923 325.41015625 26.09765625 C324.87269775 25.62078369 324.33523926 25.14391113 323.78149414 24.65258789 C321.99015507 23.27099948 320.17426999 22.3225539 318.125 21.375 C313.23943724 25.56684237 308.47279461 29.87686323 303.75 34.25 C303.18410156 34.77182861 302.61820313 35.29365723 302.03515625 35.83129883 C299.57352541 38.10202624 297.12138603 40.37845102 294.69921875 42.69140625 C264.07930104 71.40749488 222.64662292 88.34922822 181.125 92.375 C180.01253906 92.48585938 178.90007812 92.59671875 177.75390625 92.7109375 C146.03185087 95.32791866 113.49880964 93.27950314 83.125 83.375 C82.43148437 83.15005859 81.73796875 82.92511719 81.0234375 82.69335938 C63.2442415 76.82374676 46.25262418 68.45711444 31.125 57.375 C30.08472656 56.61832031 29.04445313 55.86164063 27.97265625 55.08203125 C19.84018282 49.05190422 12.46853187 42.32862889 5.125 35.375 C2.77710472 33.15988225 0.4215378 30.95323967 -1.9375 28.75 C-2.741875 27.98647217 -2.741875 27.98647217 -3.5625 27.20751953 C-6.17236797 24.76948447 -8.54756353 22.73150887 -11.875 21.375 Z " fill="#231F20" transform="translate(318.875,55.625)"/>
<path d="M0 0 C11.50875 -0.061875 11.50875 -0.061875 23.25 -0.125 C25.64668945 -0.14320801 28.04337891 -0.16141602 30.51269531 -0.18017578 C32.45116961 -0.18602694 34.3896464 -0.19112101 36.328125 -0.1953125 C37.79064697 -0.2106604 37.79064697 -0.2106604 39.28271484 -0.22631836 C60.74604066 -0.23164954 60.74604066 -0.23164954 67.83984375 6.83203125 C73.89489219 13.50620529 75.47566521 17.63791458 75.3125 26.734375 C74.71920414 32.93431678 72.45490399 36.98633783 67.75 41 C66.8425 41.66 65.935 42.32 65 43 C65.67546875 43.42410156 66.3509375 43.84820312 67.046875 44.28515625 C73.27772954 48.38203315 77.38535741 51.56993486 79.5703125 58.91796875 C81.20623225 66.84474354 79.97522712 73.98142392 76 81 C71.49138658 87.25465469 66.3344052 89.92723331 59 92 C39.35769527 93.03380551 19.66949132 93 0 93 C0 62.31 0 31.62 0 0 Z " fill="#ED1C24" transform="translate(616,180)"/>
<path d="M0 0 C0.91869873 0.00757324 1.83739746 0.01514648 2.78393555 0.02294922 C15.11707041 0.32239795 23.73845285 4.48108814 32.3125 13.25 C34.99055064 17.04390507 37.24872758 20.95873038 38.5625 25.4375 C38.0675 26.9225 38.0675 26.9225 37.5625 28.4375 C35.70483398 29.14526367 35.70483398 29.14526367 33.30859375 29.60546875 C32.45458984 29.77626953 31.60058594 29.94707031 30.72070312 30.12304688 C29.82287109 30.28869141 28.92503906 30.45433594 28 30.625 C27.09830078 30.80224609 26.19660156 30.97949219 25.26757812 31.16210938 C23.03459073 31.59925506 20.79992403 32.02377093 18.5625 32.4375 C18.17831909 31.62128174 18.17831909 31.62128174 17.78637695 30.78857422 C17.44050537 30.0720166 17.09463379 29.35545898 16.73828125 28.6171875 C16.39966064 27.90804199 16.06104004 27.19889648 15.7121582 26.46826172 C13.25031876 22.11965681 9.85499389 19.9740069 5.25 18.0625 C-1.51741447 16.9154806 -7.59002091 17.75536504 -13.6484375 21.07421875 C-18.51813717 24.78497243 -20.9298225 30.6646822 -22.4375 36.4375 C-23.53065075 48.12190606 -24.23304524 61.4767651 -17.046875 71.34765625 C-12.42922302 76.48783201 -7.679185 77.51906798 -1.0625 77.875 C4.62771098 77.75887325 8.34311172 76.23694916 12.5625 72.4375 C15.78706321 68.42858358 17.66801021 64.17372446 19.5625 59.4375 C26.01304982 60.79003464 32.27355679 62.46810233 38.5625 64.4375 C37.8721412 73.18204479 32.92783433 81.53976132 26.5625 87.4375 C16.22343461 95.79529074 3.31429778 96.52662152 -9.4375 95.4375 C-21.15313089 93.58278271 -30.48427731 86.84290332 -37.4375 77.4375 C-45.94060542 64.56582666 -46.25228884 47.19894419 -43.3125 32.5 C-40.24178498 21.12113547 -34.35773848 12.30654549 -24.625 5.6875 C-16.85150144 1.22313043 -8.86747519 -0.10296764 0 0 Z " fill="#ED1C24" transform="translate(250.4375,178.5625)"/>
<path d="M0 0 C21.45 0 42.9 0 65 0 C65 5.61 65 11.22 65 17 C50.15 17 35.3 17 20 17 C20 23.6 20 30.2 20 37 C32.87 37 45.74 37 59 37 C59 42.61 59 48.22 59 54 C46.13 54 33.26 54 20 54 C20 66.87 20 79.74 20 93 C13.4 93 6.8 93 0 93 C0 62.31 0 31.62 0 0 Z " fill="#ED1C24" transform="translate(360,180)"/>
<path d="M0 0 C6.6 0 13.2 0 20 0 C20 24.75 20 49.5 20 75 C35.51 75 51.02 75 67 75 C67 80.61 67 86.22 67 92 C44.89 92 22.78 92 0 92 C0 61.64 0 31.28 0 0 Z " fill="#ED1C24" transform="translate(481,181)"/>
<path d="M0 0 C4.00229288 -0.06922608 8.00304204 -0.12884797 12.00561523 -0.16479492 C13.36441117 -0.17979409 14.72315941 -0.20020038 16.08178711 -0.22631836 C30.22604114 -0.49123094 30.22604114 -0.49123094 36 3 C39.03033429 6.42134517 39.5357045 9.63416443 39.3515625 14.0703125 C38.77369682 17.242153 37.33425716 18.85500693 35 21 C30.91318964 23.07803917 27.49856933 23.23403038 22.94921875 23.1953125 C22.29041214 23.1924826 21.63160553 23.18965271 20.95283508 23.18673706 C18.86419938 23.17560924 16.77600444 23.15051948 14.6875 23.125 C13.26498018 23.11496059 11.8424536 23.10583642 10.41992188 23.09765625 C6.94631127 23.07740196 3.47364461 23.03824196 0 23 C0 15.41 0 7.82 0 0 Z " fill="#FFFFFF" transform="translate(636,233)"/>
<path d="M0 0 C3.45855093 -0.05451306 6.9162219 -0.09391984 10.375 -0.125 C11.34050781 -0.14175781 12.30601562 -0.15851563 13.30078125 -0.17578125 C19.61603903 -0.21816553 25.96617731 -0.05601733 32 2 C35.31763758 5.31763758 36 6.94186563 36 11.625 C34.91940196 15.27201838 33.99093903 16.71281133 31 19 C27.64264863 20.11911712 25.11794614 20.11365586 21.58203125 20.09765625 C20.32841797 20.09443359 19.07480469 20.09121094 17.78320312 20.08789062 C16.47287109 20.07951172 15.16253906 20.07113281 13.8125 20.0625 C12.47721519 20.05748317 11.14192859 20.05292059 9.80664062 20.04882812 C6.5377412 20.03702704 3.26886498 20.01909136 0 20 C0 13.4 0 6.8 0 0 Z " fill="#FFFFFF" transform="translate(636,196)"/>
<path d="M0 0 C6.6 0 13.2 0 20 0 C20 6.27 20 12.54 20 19 C13.4 19 6.8 19 0 19 C0 12.73 0 6.46 0 0 Z " fill="#ED1C24" transform="translate(313,254)"/>
<path d="M0 0 C6.27 0 12.54 0 19 0 C19 6.27 19 12.54 19 19 C12.73 19 6.46 19 0 19 C0 12.73 0 6.46 0 0 Z " fill="#ED1C24" transform="translate(720,254)"/>
<path d="M0 0 C6.27 0 12.54 0 19 0 C19 6.27 19 12.54 19 19 C12.73 19 6.46 19 0 19 C0 12.73 0 6.46 0 0 Z " fill="#ED1C24" transform="translate(570,254)"/>
<path d="M0 0 C6.27 0 12.54 0 19 0 C19 6.27 19 12.54 19 19 C12.73 19 6.46 19 0 19 C0 12.73 0 6.46 0 0 Z " fill="#ED1C24" transform="translate(434,254)"/>
</svg>
